<?xml version="1.0" encoding="UTF-8"?>
<!DOCTYPE svg PUBLIC "-//W3C//DTD SVG 1.1//EN" "http://www.w3.org/Graphics/SVG/1.1/DTD/svg11.dtd">
<svg version="1.1" xmlns="http://www.w3.org/2000/svg" xmlns:xlink="http://www.w3.org/1999/xlink" x="0" y="0" width="368.504" height="113.386" viewBox="0, 0, 368.504, 113.386">
  <g id="Layer_2">
    <path d="M18.018,21.53 L75.546,21.53 C83.209,21.53 89.422,34.302 89.422,50.058 L89.422,53.539 C89.422,69.294 83.209,82.067 75.546,82.067 L18.018,82.067 C10.354,82.067 4.142,69.294 4.142,53.539 L4.142,50.058 C4.142,34.302 10.354,21.53 18.018,21.53 z" fill="#273E8F"/>
    <path d="M26.438,39.066 L72.41,39.066 C74.243,39.066 75.729,40.68 75.729,42.67 L75.729,42.67 C75.729,44.66 74.243,46.273 72.41,46.273 L26.438,46.273 C24.605,46.273 23.12,44.66 23.12,42.67 L23.12,42.67 C23.12,40.68 24.605,39.066 26.438,39.066 z" fill="#FFFFFF"/>
    <path d="M17.796,49.195 L63.768,49.195 C65.601,49.195 67.087,50.809 67.087,52.799 L67.087,52.799 C67.087,54.789 65.601,56.402 63.768,56.402 L17.796,56.402 C15.963,56.402 14.477,54.789 14.477,52.799 L14.477,52.799 C14.477,50.809 15.963,49.195 17.796,49.195 z" fill="#FFFFFF"/>
    <path d="M25.897,59.084 L71.869,59.084 C73.701,59.084 75.187,60.697 75.187,62.687 L75.187,62.687 C75.187,64.677 73.701,66.291 71.869,66.291 L25.897,66.291 C24.064,66.291 22.578,64.677 22.578,62.687 L22.578,62.687 C22.578,60.697 24.064,59.084 25.897,59.084 z" fill="#FFFFFF"/>
    <path d="M43.299,39.066 L52.187,39.066 L52.187,46.273 L43.299,46.273 L43.299,39.066 z" fill="#1DAEE9"/>
    <path d="M43.299,49.066 L52.187,49.066 L52.187,56.273 L43.299,56.273 L43.299,49.066 z" fill="#1DAEE9"/>
    <path d="M43.299,59.066 L52.187,59.066 L52.187,66.273 L43.299,66.273 L43.299,59.066 z" fill="#1DAEE9"/>
    <g>
      <text transform="matrix(1, 0, 0, 1, 222.771, 55.866)">
        <tspan x="-127.055" y="12.839" font-family="Futura-Medium" font-size="48" kerning="0" fill="#273E8F">PolyMarker</tspan>
      </text>
      <path d="M105.513,54.009 L105.513,68.705 L100.052,68.705 L100.052,32.517 L106.239,32.517 Q110.786,32.517 113.107,33.15 Q115.45,33.783 117.232,35.541 Q120.349,38.588 120.349,43.228 Q120.349,48.197 117.021,51.103 Q113.693,54.009 108.044,54.009 z M105.513,48.947 L107.552,48.947 Q115.075,48.947 115.075,43.158 Q115.075,37.556 107.318,37.556 L105.513,37.556 z M123.888,57.127 Q123.888,52.181 127.427,48.713 Q130.966,45.244 136.052,45.244 Q141.161,45.244 144.724,48.736 Q148.239,52.228 148.239,57.314 Q148.239,62.447 144.7,65.916 Q141.138,69.361 135.958,69.361 Q130.825,69.361 127.357,65.845 Q123.888,62.377 123.888,57.127 z M129.279,57.22 Q129.279,60.642 131.107,62.634 Q132.982,64.65 136.052,64.65 Q139.146,64.65 140.997,62.658 Q142.849,60.666 142.849,57.338 Q142.849,54.009 140.997,52.017 Q139.122,50.002 136.052,50.002 Q133.029,50.002 131.154,52.017 Q129.279,54.033 129.279,57.22 z M159.091,29.119 L159.091,68.705 L153.818,68.705 L153.818,29.119 z M172.966,64.463 L162.7,45.877 L168.818,45.877 L175.802,59.002 L182.318,45.877 L188.271,45.877 L170.083,81.127 L164.06,81.127 z M191.599,68.705 L199.216,29.798 L211.638,57.923 L224.505,29.798 L231.349,68.705 L225.747,68.705 L222.255,46.861 L211.544,70.369 L201.138,46.838 L197.247,68.705 z M254.833,45.877 L260.13,45.877 L260.13,68.705 L254.833,68.705 L254.833,66.314 Q251.575,69.361 247.825,69.361 Q243.091,69.361 239.997,65.939 Q236.927,62.447 236.927,57.22 Q236.927,52.088 239.997,48.666 Q243.068,45.244 247.685,45.244 Q251.669,45.244 254.833,48.525 z M242.318,57.22 Q242.318,60.502 244.075,62.564 Q245.88,64.65 248.622,64.65 Q251.552,64.65 253.357,62.634 Q255.161,60.548 255.161,57.338 Q255.161,54.127 253.357,52.041 Q251.552,50.002 248.669,50.002 Q245.95,50.002 244.122,52.064 Q242.318,54.15 242.318,57.22 z M266.786,45.877 L272.06,45.877 L272.06,47.916 Q273.513,46.392 274.638,45.83 Q275.786,45.244 277.357,45.244 Q279.443,45.244 281.716,46.603 L279.302,51.431 Q277.802,50.353 276.372,50.353 Q272.06,50.353 272.06,56.869 L272.06,68.705 L266.786,68.705 z M290.013,29.119 L290.013,53.259 L297.443,45.877 L304.521,45.877 L294.607,55.463 L305.247,68.705 L298.404,68.705 L290.857,59.072 L290.013,59.916 L290.013,68.705 L284.739,68.705 L284.739,29.119 z M329.435,58.533 L313.075,58.533 Q313.286,61.345 314.904,63.009 Q316.521,64.65 319.052,64.65 Q321.021,64.65 322.31,63.713 Q323.575,62.775 325.193,60.244 L329.646,62.728 Q328.614,64.486 327.466,65.74 Q326.318,66.994 325.005,67.802 Q323.693,68.611 322.169,68.986 Q320.646,69.361 318.864,69.361 Q313.755,69.361 310.661,66.08 Q307.568,62.775 307.568,57.314 Q307.568,51.9 310.568,48.548 Q313.591,45.244 318.583,45.244 Q323.622,45.244 326.552,48.455 Q329.458,51.642 329.458,57.291 z M324.021,54.22 Q322.919,50.002 318.7,50.002 Q317.739,50.002 316.896,50.295 Q316.052,50.588 315.361,51.138 Q314.669,51.689 314.177,52.463 Q313.685,53.236 313.427,54.22 z M335.2,45.877 L340.474,45.877 L340.474,47.916 Q341.927,46.392 343.052,45.83 Q344.2,45.244 345.771,45.244 Q347.857,45.244 350.13,46.603 L347.716,51.431 Q346.216,50.353 344.786,50.353 Q340.474,50.353 340.474,56.869 L340.474,68.705 L335.2,68.705 z" fill-opacity="0" stroke="#273E8F" stroke-width="1"/>
    </g>
  </g>
</svg>
